<svg xmlns="http://www.w3.org/2000/svg" width="749.479" height="834.948" viewBox="0 0 749.479 834.948">
  <g id="Blur_Objects" data-name="Blur Objects" transform="matrix(0.819, 0.574, -0.574, 0.819, 703.82, 311.736)" opacity="0.401">
    <path id="Path_1" data-name="Path 1" d="M84.394,0c36.768,0,120.823,5.435,120.823,54.478S121.163,177.6,84.394,177.6,0,115.385,0,66.343,47.626,0,84.394,0Z" transform="translate(-536.801 111.612) rotate(-17)" fill="#991b1b"/>
    <path id="Path_2" data-name="Path 2" d="M141.791,9.767C211.1,21.492,371.475,56.219,388.866,127.7c7.739,31.808-80.612,8.621-113.562,35.365-40.709,33.042-32.07,112.06-70.537,105.553C135.457,256.891,23.619,151.027,6.228,79.548S72.481-1.958,141.791,9.767Z" transform="matrix(-0.407, -0.914, 0.914, -0.407, -81.378, 537.374)" fill="#fbbf24"/>
    <path id="Path_3" data-name="Path 3" d="M107.267,0c23.934,0,23.911,39.879,41.749,53.1,26.333,19.521,65.519,18.741,65.519,53.992,0,22.653-53.484,26.246-65.519,43.567-19.354,27.857-5.2,63.528-41.749,63.528A107.091,107.091,0,0,1,14.61,53.1C43.7-.925,67.753,0,107.267,0Z" transform="translate(-372.522 277.962)" fill="#84cc16"/>
  </g>
</svg>
