<svg id="e06KB31JrYp1" xmlns="http://www.w3.org/2000/svg" xmlns:xlink="http://www.w3.org/1999/xlink" viewBox="0 0 200 800" shape-rendering="geometricPrecision" text-rendering="geometricPrecision"><defs><filter id="e06KB31JrYp3-filter" x="-400%" width="600%" y="-400%" height="600%"><feGaussianBlur id="e06KB31JrYp3-filter-blur-0" stdDeviation="400,400" result="result"/></filter><filter id="e06KB31JrYp4-filter" x="-400%" width="600%" y="-400%" height="600%"><feGaussianBlur id="e06KB31JrYp4-filter-blur-0" stdDeviation="200,200" result="result"/></filter><filter id="e06KB31JrYp5-filter" x="-400%" width="600%" y="-400%" height="600%"><feGaussianBlur id="e06KB31JrYp5-filter-blur-0" stdDeviation="250,250" result="result"/></filter><filter id="e06KB31JrYp6-filter" x="-400%" width="600%" y="-400%" height="600%"><feGaussianBlur id="e06KB31JrYp6-filter-blur-0" stdDeviation="200,200" result="result"/></filter><filter id="e06KB31JrYp7-filter" x="-400%" width="600%" y="-400%" height="600%"><feGaussianBlur id="e06KB31JrYp7-filter-blur-0" stdDeviation="200,200" result="result"/></filter><filter id="e06KB31JrYp8-filter" x="-400%" width="600%" y="-400%" height="600%"><feGaussianBlur id="e06KB31JrYp8-filter-blur-0" stdDeviation="200,200" result="result"/></filter><filter id="e06KB31JrYp9-filter" x="-400%" width="600%" y="-400%" height="600%"><feGaussianBlur id="e06KB31JrYp9-filter-blur-0" stdDeviation="200,200" result="result"/></filter><filter id="e06KB31JrYp10-filter" x="-400%" width="600%" y="-400%" height="600%"><feGaussianBlur id="e06KB31JrYp10-filter-blur-0" stdDeviation="200,200" result="result"/></filter><filter id="e06KB31JrYp11-filter" x="-400%" width="600%" y="-400%" height="600%"><feGaussianBlur id="e06KB31JrYp11-filter-blur-0" stdDeviation="200,200" result="result"/></filter><filter id="e06KB31JrYp12-filter" x="-400%" width="600%" y="-400%" height="600%"><feGaussianBlur id="e06KB31JrYp12-filter-blur-0" stdDeviation="200,200" result="result"/></filter><filter id="e06KB31JrYp13-filter" x="-400%" width="600%" y="-400%" height="600%"><feGaussianBlur id="e06KB31JrYp13-filter-blur-0" stdDeviation="200,200" result="result"/></filter><filter id="e06KB31JrYp14-filter" x="-400%" width="600%" y="-400%" height="600%"><feGaussianBlur id="e06KB31JrYp14-filter-blur-0" stdDeviation="200,200" result="result"/></filter><filter id="e06KB31JrYp15-filter" x="-400%" width="600%" y="-400%" height="600%"><feGaussianBlur id="e06KB31JrYp15-filter-blur-0" stdDeviation="200,200" result="result"/></filter></defs><g transform="matrix(.201943-.010166 0.018468 0.366856 30.519267 159.67911)" opacity="0.5"><path d="M-260.506848,91.972066c17.64943-61.77301,583.075876-224.946204,649.868626-200.657934c49.67708,18.06439,94.261757,395.975122,120.827337,435.823492c26.70484,40.05726-29.416905,69.501606-14.500075,99.335266c15.47236,30.94471,533.215935,170.295681,534.709485,203.153771c2.78858,61.34884,438.289456,114.22214,424.296136,170.19544-6.29473,25.1789-945.789391,13.035679-966.057831,28.626779-22.64572,17.41979-64.62553,14.10442-91.67874,14.10442-114.94484,0-494.789492,34.473475-484.349193,124.803476c6.631855,57.379152-378.07753,178.181384-409.202048,3.641195-4.159427-23.32525-349.784682-202.803901-367.105122-213.462641-23.37677-14.38571-682.54023-201.844518-675.85921-228.442968C-1434.531479,110.963267,-290.01071,165.731717,-260.50685,91.972067" transform="matrix(-.102082 0.08208-.113498-.141158 412.558357 1680.378567)" opacity="0.5" filter="url(#e06KB31JrYp3-filter)" fill="#3415f6" stroke="#3f5787" stroke-width="4"/><path d="M97.23915,334.79416c17.64943-61.77301,141.24746-144.17585,208.04021-119.88758c49.67708,18.06439,178.344175,72.382674,204.909755,112.231044c26.70484,40.05726-29.416905,69.501606-14.500075,99.335266c15.47236,30.94471,5.55866,76.45117,7.05221,109.30926c2.78858,61.34884-59.273243,37.494805-73.266563,93.468105-6.29473,25.1789,79.430583,183.607525,59.162143,199.198625-22.64572,17.41979-64.62553,14.10442-91.67874,14.10442-114.94484,0-494.789492,34.473475-484.349193,124.803476c6.631855,57.379152-378.07753,178.181384-409.202048,3.641195-4.159427-23.32525-1034.585257,323.238417-1051.905697,312.579677-23.37677-14.38571,671.769695-861.934587,678.450715-888.533037C-765.022129,-23.084484,67.73529,397.97548,97.23915,324.21583" transform="matrix(-.102082 0.08208-.113498-.141158 497.278477 1290.653975)" filter="url(#e06KB31JrYp4-filter)" fill="#15f6a5" stroke="#3f5787" stroke-width="4"/><path d="M97.23915,334.79416c17.64943-61.77301,141.24746-144.17585,208.04021-119.88758c49.67708,18.06439,178.344175,72.382674,204.909755,112.231044c26.70484,40.05726-29.416905,69.501606-14.500075,99.335266c15.47236,30.94471,5.55866,76.45117,7.05221,109.30926c2.78858,61.34884-59.273243,37.494805-73.266563,93.468105-6.29473,25.1789,79.430583,183.607525,59.162143,199.198625-22.64572,17.41979-64.62553,14.10442-91.67874,14.10442-114.94484,0-494.789492,34.473475-484.349193,124.803476c6.631855,57.379152-378.07753,178.181384-409.202048,3.641195-4.159427-23.32525-155.871793-245.279693-173.192233-255.938433-23.37677-14.38571-206.943769-293.416477-200.262749-320.014927C-765.022129,-23.084484,67.73529,397.97548,97.23915,324.21583" transform="matrix(-.146847 0.118073-.171015-.21269 161.509461 1536.802978)" filter="url(#e06KB31JrYp5-filter)" fill="#f61515" stroke="#3f5787" stroke-width="4"/><path d="M97.23915,334.79416c17.64943-61.77301,141.24746-144.17585,208.04021-119.88758c49.67708,18.06439,178.344175,72.382674,204.909755,112.231044c26.70484,40.05726-29.416905,69.501606-14.500075,99.335266c15.47236,30.94471,5.55866,76.45117,7.05221,109.30926c2.78858,61.34884-59.273243,37.494805-73.266563,93.468105-6.29473,25.1789,79.430583,183.607525,59.162143,199.198625-22.64572,17.41979-64.62553,14.10442-91.67874,14.10442-114.94484,0-345.158366-135.26775-253.87957-115.067473c56.396627,12.480746,223.485869-115.09082,105.78315-205.808107-18.766179-14.4637-496.677128,19.469359-513.997568,8.810619-23.37677-14.38571-350.265684-99.936023-374.795074-112.200713-66.65569-33.32785,707.666262-20.312146,737.170122-94.071796" transform="matrix(-.046889 0.356622-.41399-.054432 990.897457 844.525847)" filter="url(#e06KB31JrYp6-filter)" fill="#e824fb" stroke="#3f5787" stroke-width="4"/><path d="M97.23915,334.79416c17.64943-61.77301,141.24746-144.17585,208.04021-119.88758c49.67708,18.06439,22.471529,210.769343,49.037109,250.617713c26.70484,40.05726,126.455741-68.885063,141.372571-39.051403c15.47236,30.94471,5.55866,76.45117,7.05221,109.30926c2.78858,61.34884,194.945898,127.242189,180.952578,183.215489-6.29473,25.1789-183.523662,13.084303-203.792102,28.675403-22.64572,17.41979-55.890426,94.880258-82.943636,94.880258-114.94484,0-270.615004,52.834772-361.385899,49.502191-57.72224-2.119226-74.281211-132.842265-191.98393-223.559552-18.766179-14.4637,284.146121-104.317591,266.825681-114.976331C87.037172,539.133898,167.60791,452.84199,143.07852,440.5773c-66.65569-33.32785-75.34323-32.023489-45.83937-105.783139" transform="matrix(.321689 0.160916-.186802 0.373438 236.045049 655.799243)" filter="url(#e06KB31JrYp7-filter)" fill="#24cffb" stroke="#3f5787" stroke-width="4"/><path d="M97.23915,334.79416c17.64943-61.77301,141.24746-144.17585,208.04021-119.88758c49.67708,18.06439,22.471529,210.769343,49.037109,250.617713c26.70484,40.05726,126.455741-68.885063,141.372571-39.051403c15.47236,30.94471,5.55866,76.45117,7.05221,109.30926c2.78858,61.34884-59.273243,37.494805-73.266563,93.468105-6.29473,25.1789,79.430583,183.607525,59.162143,199.198625-22.64572,17.41979-64.62553,14.10442-91.67874,14.10442-114.94484,0-345.158366-135.26775-253.87957-115.067473c56.396627,12.480746,68.421784-58.985539-49.280935-149.702826-18.766179-14.4637,130.071265-77.181491,112.750825-87.840231-23.37677-14.38571-38.9405-37.10078-63.46989-49.36547-66.65569-33.32785-75.34323-42.60182-45.83937-116.36147" transform="matrix(.493531 0.246875-.22526 0.45032 769.249123 1049.677266)" filter="url(#e06KB31JrYp8-filter)" fill="#fb8e24" stroke="#3f5787" stroke-width="4"/><path d="M97.23915,334.79416c17.64943-61.77301,141.24746-144.17585,208.04021-119.88758c49.67708,18.06439,22.471529,210.769343,49.037109,250.617713c26.70484,40.05726,126.455741-68.885063,141.372571-39.051403c15.47236,30.94471,5.55866,76.45117,7.05221,109.30926c2.78858,61.34884-59.273243,37.494805-73.266563,93.468105-6.29473,25.1789,79.430583,183.607525,59.162143,199.198625-22.64572,17.41979-64.62553,14.10442-91.67874,14.10442-114.94484,0-345.158366-135.26775-253.87957-115.067473c56.396627,12.480746,223.485869-115.09082,105.78315-205.808107-18.766179-14.4637-24.99282-21.07621-42.31326-31.73495-23.37677-14.38571-38.9405-37.10078-63.46989-49.36547-66.65569-33.32785-75.34323-42.60182-45.83937-116.36147" transform="matrix(.321689 0.160916-.186802 0.373438 453.790632 501.753704)" filter="url(#e06KB31JrYp9-filter)" fill="#fbbf24" stroke="#3f5787" stroke-width="4"/><path d="M97.23915,334.79416c17.64943-61.77301,141.24746-144.17585,208.04021-119.88758c49.67708,18.06439,22.471529,210.769343,49.037109,250.617713c26.70484,40.05726,126.455741-68.885063,141.372571-39.051403c15.47236,30.94471,5.55866,76.45117,7.05221,109.30926c2.78858,61.34884-59.273243,37.494805-73.266563,93.468105-6.29473,25.1789,79.430583,183.607525,59.162143,199.198625-22.64572,17.41979-64.62553,14.10442-91.67874,14.10442-114.94484,0-345.158366-135.26775-253.87957-115.067473c56.396627,12.480746,223.485869-115.09082,105.78315-205.808107-18.766179-14.4637-24.99282-21.07621-42.31326-31.73495-23.37677-14.38571-38.9405-37.10078-63.46989-49.36547-66.65569-33.32785-75.34323-42.60182-45.83937-116.36147" transform="matrix(.380735 0.649405-.913459 0.535545 254.114817 238.579388)" filter="url(#e06KB31JrYp10-filter)" fill="#fbbf24" stroke="#3f5787" stroke-width="4"/><path d="M97.23915,334.79416c17.64943-61.77301-37.271017-247.35567,19.624333-204.763287c288.747994,216.159408,695.778391,202.91021,447.34787,14.895823-38.38844-29.052707,12.035263,232.015858-.935658,262.745556C549.580942,440.116796,501.2477,502.92406,502.74125,535.78215c2.78858,61.34884,38.67606,180.27575,24.68274,236.24905-6.29473,25.1789-18.51872,40.82658-38.78716,56.41768-22.64572,17.41979-64.62553,14.10442-91.67874,14.10442-114.94484,0-118.815664,118.80715-177.025099,115.231986-23.879238-1.466638-94.379329-140.805757-103.309175-165.433403C75.569425,679.127868,223.86885,500.60151,206.54841,489.94277c-23.37677-14.38571-38.9405-37.10078-63.46989-49.36547-66.65569-33.32785-75.34323-42.60182-45.83937-116.36147" transform="matrix(.775786-.2929 0.154082 0.408107 280.737383-271.038995)" opacity="0.5" filter="url(#e06KB31JrYp11-filter)" fill="#ffd616" stroke="#3f5787" stroke-width="4"/><path d="M97.23915,334.79416c17.64943-61.77301-37.271017-247.35567,19.624333-204.763287c288.747994,216.159408,695.778391,202.91021,447.34787,14.895823-38.38844-29.052707,12.035263,232.015858-.935658,262.745556C549.580942,440.116796,501.2477,502.92406,502.74125,535.78215c2.78858,61.34884,38.67606,180.27575,24.68274,236.24905-6.29473,25.1789-18.51872,40.82658-38.78716,56.41768-22.64572,17.41979-64.62553,14.10442-91.67874,14.10442-114.94484,0-118.815664,118.80715-177.025099,115.231986-23.879238-1.466638-94.379329-140.805757-103.309175-165.433403C75.569425,679.127868,223.86885,500.60151,206.54841,489.94277c-23.37677-14.38571-38.9405-37.10078-63.46989-49.36547-66.65569-33.32785-75.34323-42.60182-45.83937-116.36147" transform="matrix(.775786-.2929 0.154082 0.408107-772.34904 142.014459)" opacity="0.5" filter="url(#e06KB31JrYp12-filter)" fill="#6a1b99" stroke="#3f5787" stroke-width="4"/><path d="M97.23915,334.79416c17.64943-61.77301-37.271017-247.35567,19.624333-204.763287c288.747994,216.159408,695.778391,202.91021,447.34787,14.895823-38.38844-29.052707,12.035263,232.015858-.935658,262.745556C549.580942,440.116796,501.2477,502.92406,502.74125,535.78215c2.78858,61.34884,38.67606,180.27575,24.68274,236.24905-6.29473,25.1789-18.51872,40.82658-38.78716,56.41768-22.64572,17.41979-64.62553,14.10442-91.67874,14.10442-114.94484,0-118.815664,118.80715-177.025099,115.231986-23.879238-1.466638-94.379329-140.805757-103.309175-165.433403C75.569425,679.127868,223.86885,500.60151,206.54841,489.94277c-23.37677-14.38571-38.9405-37.10078-63.46989-49.36547-66.65569-33.32785-75.34323-42.60182-45.83937-116.36147" transform="matrix(.335418-.126638 0.154082 0.408107-203.131464-160.784905)" opacity="0.5" filter="url(#e06KB31JrYp13-filter)" fill="#88991b" stroke="#3f5787" stroke-width="4"/><path d="M97.23915,334.79416c17.64943-61.77301,40.210678-218.886691,107.003428-194.598421c49.67708,18.06439,126.143909-305.356363,152.709489-265.507993C383.656907,-85.254994,480.77221,396.63923,495.68904,426.47289c15.47236,30.94471,39.786623,112.525308,7.05221,109.30926-89.288823-8.772331-205.659977-5.797362,24.68274,236.24905c17.891946,18.801035,79.530916,253.135814,59.262476,268.726914-22.64572,17.41979-262.991904,161.862475-290.045114,161.862475-114.94484,0-40.660562-488.793719-44.253572-582.211919-.91948-23.90656,8.18938-75.29998-3.52611-98.73095-10.59592-21.19185-24.99282-21.07621-42.31326-31.73495-23.37677-14.38571-38.9405-37.10078-63.46989-49.36547-66.65569-33.32785-75.34323-42.60182-45.83937-116.36147" transform="matrix(.600125-.069643 0.023639 0.203703 100.374641 190.352911)" opacity="0.7" filter="url(#e06KB31JrYp14-filter)" fill="#1b998c" stroke="#3f5787" stroke-width="4"/><path d="M97.23915,334.79416c17.64943-61.77301,141.24746-144.17585,208.04021-119.88758c49.67708,18.06439,54.53484,108.24805,81.10042,148.09642c26.70484,40.05726,94.39243,33.63623,109.30926,63.46989c15.47236,30.94471,5.55866,76.45117,7.05221,109.30926c2.78858,61.34884,38.67606,180.27575,24.68274,236.24905-6.29473,25.1789-18.51872,40.82658-38.78716,56.41768-22.64572,17.41979-64.62553,14.10442-91.67874,14.10442-114.94484,0-140.9773-128.72643-144.57031-222.14463-.91948-23.90656,8.18938-75.29998-3.52611-98.73095-10.59592-21.19185-24.99282-21.07621-42.31326-31.73495-23.37677-14.38571-38.9405-37.10078-63.46989-49.36547-66.65569-33.32785-75.34323-42.60182-45.83937-116.36147" transform="matrix(.618188-.07174 0.04649 0.400608 457.456834 103.76293)" filter="url(#e06KB31JrYp15-filter)" fill="#991b1b" stroke="#3f5787" stroke-width="4"/></g></svg>