<svg id="ewDBOICa9rT1" xmlns="http://www.w3.org/2000/svg" xmlns:xlink="http://www.w3.org/1999/xlink" viewBox="0 0 400 1600" shape-rendering="geometricPrecision" text-rendering="geometricPrecision"><defs><filter id="ewDBOICa9rT2-filter" x="-400%" width="600%" y="-400%" height="600%"><feGaussianBlur id="ewDBOICa9rT2-filter-blur-0" stdDeviation="75,75" result="result"/></filter><filter id="ewDBOICa9rT3-filter" x="-400%" width="600%" y="-400%" height="600%"><feGaussianBlur id="ewDBOICa9rT3-filter-blur-0" stdDeviation="75,75" result="result"/></filter><filter id="ewDBOICa9rT4-filter" x="-400%" width="600%" y="-400%" height="600%"><feGaussianBlur id="ewDBOICa9rT4-filter-blur-0" stdDeviation="75,75" result="result"/></filter><filter id="ewDBOICa9rT5-filter" x="-400%" width="600%" y="-400%" height="600%"><feGaussianBlur id="ewDBOICa9rT5-filter-blur-0" stdDeviation="75,75" result="result"/></filter><filter id="ewDBOICa9rT6-filter" x="-400%" width="600%" y="-400%" height="600%"><feGaussianBlur id="ewDBOICa9rT6-filter-blur-0" stdDeviation="75,75" result="result"/></filter><filter id="ewDBOICa9rT7-filter" x="-400%" width="600%" y="-400%" height="600%"><feGaussianBlur id="ewDBOICa9rT7-filter-blur-0" stdDeviation="75,75" result="result"/></filter><filter id="ewDBOICa9rT8-filter" x="-400%" width="600%" y="-400%" height="600%"><feGaussianBlur id="ewDBOICa9rT8-filter-blur-0" stdDeviation="75,75" result="result"/></filter><filter id="ewDBOICa9rT9-filter" x="-400%" width="600%" y="-400%" height="600%"><feGaussianBlur id="ewDBOICa9rT9-filter-blur-0" stdDeviation="75,75" result="result"/></filter><filter id="ewDBOICa9rT10-filter" x="-400%" width="600%" y="-400%" height="600%"><feGaussianBlur id="ewDBOICa9rT10-filter-blur-0" stdDeviation="75,75" result="result"/></filter><filter id="ewDBOICa9rT11-filter" x="-400%" width="600%" y="-400%" height="600%"><feGaussianBlur id="ewDBOICa9rT11-filter-blur-0" stdDeviation="75,75" result="result"/></filter><filter id="ewDBOICa9rT12-filter" x="-400%" width="600%" y="-400%" height="600%"><feGaussianBlur id="ewDBOICa9rT12-filter-blur-0" stdDeviation="75,75" result="result"/></filter><filter id="ewDBOICa9rT13-filter" x="-400%" width="600%" y="-400%" height="600%"><feGaussianBlur id="ewDBOICa9rT13-filter-blur-0" stdDeviation="75,75" result="result"/></filter><filter id="ewDBOICa9rT14-filter" x="-400%" width="600%" y="-400%" height="600%"><feGaussianBlur id="ewDBOICa9rT14-filter-blur-0" stdDeviation="75,75" result="result"/></filter></defs><ellipse rx="76.130896" ry="76.130896" transform="matrix(.52646 0 0 0.584682 355.53417 1475.123688)" filter="url(#ewDBOICa9rT2-filter)" fill="#8405bf" stroke-width="0"/><ellipse rx="76.130896" ry="76.130896" transform="matrix(.427307 0 0 0.456385 112.032831 776.690776)" filter="url(#ewDBOICa9rT3-filter)" fill="#d316da" stroke-width="0"/><ellipse rx="76.130896" ry="76.130896" transform="matrix(.620708 0 0 0.782282 112.032831 1558.909329)" filter="url(#ewDBOICa9rT4-filter)" fill="#45da16" stroke-width="0"/><ellipse rx="76.130896" ry="76.130896" transform="matrix(.255917 0 0 0.322533 300.096261 1273.663169)" filter="url(#ewDBOICa9rT5-filter)" fill="#1624da" stroke-width="0"/><ellipse rx="76.130896" ry="76.130896" transform="matrix(.884956 0 0 0.607836 334.937489 1044.540294)" filter="url(#ewDBOICa9rT6-filter)" fill="#da1620" stroke-width="0"/><ellipse rx="76.130896" ry="76.130896" transform="matrix(.427307 0 0 0.456385 300.096261 659.96175)" filter="url(#ewDBOICa9rT7-filter)" fill="#166ada" stroke-width="0"/><ellipse rx="76.130896" ry="76.130896" transform="matrix(.427307 0 0 0.456385 332.627526 48.411941)" filter="url(#ewDBOICa9rT8-filter)" fill="#da9a16" stroke-width="0"/><ellipse rx="76.130896" ry="76.130896" transform="matrix(.809104 0 0 0.900129 97.690093 1113.067921)" filter="url(#ewDBOICa9rT9-filter)" fill="#2ce1ce" stroke-width="0"/><ellipse rx="76.130896" ry="76.130896" transform="matrix(.809104 0 0 0.900129 97.690093 556.689124)" filter="url(#ewDBOICa9rT10-filter)" fill="#90b116" stroke-width="0"/><ellipse rx="76.130896" ry="76.130896" transform="matrix(.29514 0 0 0.303768 112.032831 1321.344025)" filter="url(#ewDBOICa9rT11-filter)" fill="#fff623" stroke-width="0"/><ellipse rx="76.130896" ry="76.130896" transform="matrix(.29514 0 0 0.303768 212.127087 884.823455)" filter="url(#ewDBOICa9rT12-filter)" fill="#1b9931" stroke-width="0"/><ellipse rx="76.130896" ry="76.130896" transform="matrix(.728192 0 0 0.890013 300.096261 314.148218)" filter="url(#ewDBOICa9rT13-filter)" fill="#991b1b" stroke-width="0"/><ellipse rx="76.130896" ry="76.130896" transform="matrix(.635904 0 0 0.635904 49.278152 187.872954)" filter="url(#ewDBOICa9rT14-filter)" fill="#453cd3" stroke-width="0"/></svg>